<svg class="logo" viewBox="0 0 1054 226" fill="none" xmlns="http://www.w3.org/2000/svg">
    <path d="M111.35 105.17C111.35 119.57 106.38 130.11 96.4501 136.79C86.5201 143.47 72.7301 146.81 55.0901 146.81H0.910156V3.09H51.8602C70.3302 3.09 83.5702 5.77001 91.5602 11.14C99.5501 16.51 103.54 25 103.54 36.64C103.54 45.57 101.37 52.81 97.0302 58.35C92.6902 63.89 85.9002 67.59 76.6602 69.46C88.7502 71.12 97.5502 74.93 103.07 80.88C108.59 86.84 111.35 94.94 111.35 105.18V105.17ZM73.8401 43.07C73.8401 37.6 71.8202 33.81 67.8002 31.7C63.7702 29.59 57.5202 28.53 49.0502 28.53H30.3002V59.37H48.2202C56.9002 59.37 63.3402 58.16 67.5502 55.74C71.7502 53.32 73.8502 49.09 73.8502 43.07H73.8401ZM81.3401 102.58C81.3401 96.14 79.1502 91.59 74.7802 88.92C70.4002 86.26 62.2102 84.92 50.1902 84.92H30.2901V120.85H45.1902C56.6502 120.85 64.5502 120.3 68.8902 119.19C73.2301 118.08 76.3901 116.21 78.3701 113.58C80.3502 110.95 81.3401 107.28 81.3401 102.57V102.58Z" fill="white"></path>
    <path d="M122.05 146.82L169.77 3.09H208.01L255.83 146.82H225.72L216.13 117.64H160.6L151.22 146.82H122.05ZM168.93 91.99H207.79L188.41 32.59L168.93 91.99Z" fill="white"></path>
    <path d="M356.01 146.82L303.5 44.11V146.82H274.74V3.09H312.87L361.73 99.99V3.09H390.59V146.82H356H356.01Z" fill="white"></path>
    <path d="M499.53 146.82L459.63 86.79L450.88 96.86V146.81H421.5V3.09H450.88V59.17L498.08 3.09H532.36L478.6 64.99L536.21 146.83H499.54L499.53 146.82Z" fill="white"></path>
    <path d="M555.17 146.82V3.09H584.55V120.03H645.19V146.82H555.17Z" fill="white"></path>
    <path d="M664.02 146.82V3.09H757.68V28.95H693.4V59.59H747.58V85.55H693.4V120.03H757.68V146.82H664.02Z" fill="white"></path>
    <path d="M888.55 105.17C888.55 119.57 883.81 130.61 874.33 138.3C864.85 145.99 850.87 149.83 832.4 149.83C819.62 149.83 808.52 147.72 799.11 143.5C789.7 139.28 782.04 132.46 776.14 123.04L798.75 105.8C802.08 110.51 805.24 114.04 808.23 116.39C811.22 118.74 814.76 120.58 818.86 121.89C822.96 123.21 827.68 123.86 833.03 123.86C841.02 123.86 847.25 122.49 851.73 119.76C856.21 117.03 858.45 112.85 858.45 107.25C858.45 104.07 857.67 101.4 856.11 99.25C854.55 97.1 852.2 95.25 849.08 93.69C845.96 92.13 840.54 90.35 832.83 88.34C825.33 86.33 818.26 84.31 811.63 82.26C805 80.22 799.27 77.57 794.44 74.32C789.61 71.07 785.81 66.98 783.03 62.06C780.25 57.15 778.86 50.95 778.86 43.47C778.86 29.83 783.48 19.19 792.72 11.54C801.96 3.89001 815.19 0.0599976 832.41 0.0599976C857.34 0.0599976 874.99 8.57998 885.34 25.61L862.94 43.06C858.98 36.97 854.54 32.61 849.6 29.97C844.67 27.34 838.8 26.02 831.99 26.02C825.18 26.02 819.64 27.25 815.37 29.71C811.1 32.17 808.96 36.03 808.96 41.29C808.96 45.93 811.18 49.48 815.63 51.93C820.07 54.39 827.82 56.86 838.86 59.35C844.97 60.94 851.01 62.66 856.99 64.49C862.96 66.33 868.29 68.87 872.98 72.12C877.67 75.37 881.44 79.63 884.29 84.89C887.14 90.15 888.56 96.9 888.56 105.14L888.55 105.17Z" fill="white"></path>
    <path d="M1017.64 105.17C1017.64 119.57 1012.9 130.61 1003.42 138.3C993.94 145.99 979.96 149.83 961.49 149.83C948.71 149.83 937.61 147.72 928.2 143.5C918.79 139.28 911.13 132.46 905.23 123.04L927.84 105.8C931.17 110.51 934.33 114.04 937.32 116.39C940.31 118.74 943.85 120.58 947.95 121.89C952.05 123.21 956.77 123.86 962.12 123.86C970.11 123.86 976.34 122.49 980.82 119.76C985.3 117.03 987.54 112.85 987.54 107.25C987.54 104.07 986.76 101.4 985.2 99.25C983.64 97.1 981.29 95.25 978.17 93.69C975.05 92.13 969.63 90.35 961.92 88.34C954.42 86.33 947.35 84.31 940.72 82.26C934.09 80.22 928.36 77.57 923.53 74.32C918.7 71.07 914.9 66.98 912.12 62.06C909.34 57.15 907.95 50.95 907.95 43.47C907.95 29.83 912.57 19.19 921.81 11.54C931.05 3.89001 944.28 0.0599976 961.5 0.0599976C986.43 0.0599976 1004.08 8.57998 1014.43 25.61L992.03 43.06C988.07 36.97 983.63 32.61 978.69 29.97C973.76 27.34 967.89 26.02 961.08 26.02C954.27 26.02 948.73 27.25 944.46 29.71C940.19 32.17 938.05 36.03 938.05 41.29C938.05 45.93 940.27 49.48 944.72 51.93C949.16 54.39 956.91 56.86 967.95 59.35C974.06 60.94 980.1 62.66 986.08 64.49C992.05 66.33 997.38 68.87 1002.07 72.12C1006.76 75.37 1010.53 79.63 1013.38 84.89C1016.23 90.15 1017.65 96.9 1017.65 105.14L1017.64 105.17Z" fill="white"></path>
    <path d="M1017.56 198.09H0.839844V225.92H1017.56V198.09Z" fill="#ED1C24"></path>
    <path d="M1038.36 32.36C1035.66 32.36 1033.17 31.7 1030.89 30.38C1028.61 29.06 1026.82 27.26 1025.5 24.96C1024.19 22.67 1023.53 20.18 1023.53 17.49C1023.53 14.8 1024.18 12.29 1025.48 10.02C1026.78 7.75 1028.58 5.97002 1030.89 4.66002C1033.19 3.35002 1035.68 2.70001 1038.36 2.70001C1041.04 2.70001 1043.56 3.35001 1045.83 4.65001C1048.1 5.95001 1049.88 7.75001 1051.19 10.06C1052.5 12.36 1053.15 14.84 1053.15 17.49C1053.15 20.14 1052.5 22.71 1051.19 25.01C1049.88 27.31 1048.09 29.1 1045.81 30.41C1043.53 31.71 1041.05 32.36 1038.36 32.36ZM1038.36 29.98C1040.56 29.98 1042.62 29.42 1044.54 28.31C1046.46 27.2 1047.97 25.68 1049.07 23.75C1050.17 21.82 1050.72 19.73 1050.72 17.49C1050.72 15.25 1050.16 13.16 1049.05 11.23C1047.94 9.30003 1046.43 7.79002 1044.52 6.69002C1042.61 5.59002 1040.56 5.04001 1038.36 5.04001C1036.16 5.04001 1034.07 5.60002 1032.16 6.71002C1030.25 7.82002 1028.74 9.34 1027.64 11.27C1026.54 13.2 1025.98 15.27 1025.98 17.5C1025.98 19.73 1026.53 21.83 1027.62 23.74C1028.71 25.66 1030.22 27.18 1032.13 28.3C1034.05 29.42 1036.12 29.99 1038.36 29.99V29.98ZM1033.11 25.02V9.36H1038.18C1040.03 9.36 1041.46 9.68 1042.45 10.33C1043.44 10.97 1043.94 12.16 1043.94 13.89C1043.94 15.25 1043.66 16.28 1043.09 16.98C1042.52 17.68 1041.76 18.17 1040.81 18.45L1045.1 25.01H1042.08L1038.08 18.82H1035.67V25.01H1033.11V25.02ZM1035.67 16.62H1038.05C1039.31 16.62 1040.17 16.42 1040.6 16.03C1041.04 15.64 1041.25 14.96 1041.25 14C1041.25 13.1 1041.03 12.47 1040.58 12.1C1040.13 11.73 1039.33 11.55 1038.18 11.55H1035.67V16.62Z" fill="white"></path>
</svg>